name ./resultDataOpenSim/trcMotMarkerGrf/sub10/grf-02-02.mot
datacolumns 19
datarows 27
range 0.98000000 1.08400000
endheader

                time	     ground_force_vx	     ground_force_vy	     ground_force_vz	     ground_force_px	     ground_force_py	     ground_force_pz	   l_ground_force_vx	   l_ground_force_vy	   l_ground_force_vz	   l_ground_force_px	   l_ground_force_py	   l_ground_force_pz	     ground_torque_x	     ground_torque_y	     ground_torque_z	   l_ground_torque_x	   l_ground_torque_y	   l_ground_torque_z	
          0.98000000	          0.00000000	          0.00000000	          0.00000000	          0.00000000	          0.00000000	          0.00000000	          0.95521669	        408.97431157	         18.88704835	          0.00372567	         -0.02500000	         -0.12718746	          0.00000000	          0.00000000	          0.00000000	          0.00000000	         -1.31159027	          0.00000000	
          0.98400000	          0.00000000	          0.00000000	          0.00000000	          0.00000000	          0.00000000	          0.00000000	          4.52407290	        409.96524075	         19.55791903	          0.00427009	         -0.02500000	         -0.12708457	          0.00000000	          0.00000000	          0.00000000	          0.00000000	         -1.43957806	          0.00000000	
          0.98800000	          0.00000000	          0.00000000	          0.00000000	          0.00000000	          0.00000000	          0.00000000	          8.23546220	        411.99921699	         20.22020270	          0.00481347	         -0.02500000	         -0.12687950	          0.00000000	          0.00000000	          0.00000000	          0.00000000	         -1.57341170	          0.00000000	
          0.99200000	          0.00000000	          0.00000000	          0.00000000	          0.00000000	          0.00000000	          0.00000000	         12.00576148	        415.13378989	         20.88010651	          0.00521787	         -0.02500000	         -0.12669050	          0.00000000	          0.00000000	          0.00000000	          0.00000000	         -1.71233279	          0.00000000	
          0.99600000	          0.00000000	          0.00000000	          0.00000000	          0.00000000	          0.00000000	          0.00000000	         15.73555758	        419.37211842	         21.56993929	          0.00537504	         -0.02500000	         -0.12663067	          0.00000000	          0.00000000	          0.00000000	          0.00000000	         -1.85627570	          0.00000000	
          1.00000000	          0.00000000	          0.00000000	          0.00000000	          0.00000000	          0.00000000	          0.00000000	         19.32367234	        424.71907481	         22.31550967	          0.00525828	         -0.02500000	         -0.12676273	          0.00000000	          0.00000000	          0.00000000	          0.00000000	         -2.00626825	          0.00000000	
          1.00400000	          0.00000000	          0.00000000	          0.00000000	          0.00000000	          0.00000000	          0.00000000	         22.68778010	        431.22574970	         23.10391567	          0.00491313	         -0.02500000	         -0.12707140	          0.00000000	          0.00000000	          0.00000000	          0.00000000	         -2.16461240	          0.00000000	
          1.00800000	          0.00000000	          0.00000000	          0.00000000	          0.00000000	          0.00000000	          0.00000000	         25.77136333	        438.98873075	         23.88537118	          0.00451176	         -0.02500000	         -0.12741831	          0.00000000	          0.00000000	          0.00000000	          0.00000000	         -2.33473204	          0.00000000	
          1.01200000	          0.00000000	          0.00000000	          0.00000000	          0.00000000	          0.00000000	          0.00000000	         28.54045173	        448.09152688	         24.60539903	          0.00425820	         -0.02500000	         -0.12762227	          0.00000000	          0.00000000	          0.00000000	          0.00000000	         -2.52070591	          0.00000000	
          1.01600000	          0.00000000	          0.00000000	          0.00000000	          0.00000000	          0.00000000	          0.00000000	         30.98592328	        458.54204486	         25.22302456	          0.00428099	         -0.02500000	         -0.12755383	          0.00000000	          0.00000000	          0.00000000	          0.00000000	         -2.72659206	          0.00000000	
          1.02000000	          0.00000000	          0.00000000	          0.00000000	          0.00000000	          0.00000000	          0.00000000	         33.12711404	        470.26440237	         25.69565671	          0.00458125	         -0.02500000	         -0.12721616	          0.00000000	          0.00000000	          0.00000000	          0.00000000	         -2.95568373	          0.00000000	
          1.02400000	          0.00000000	          0.00000000	          0.00000000	          0.00000000	          0.00000000	          0.00000000	         35.01160081	        483.14359618	         25.96341815	          0.00509569	         -0.02500000	         -0.12668295	          0.00000000	          0.00000000	          0.00000000	          0.00000000	         -3.20979204	          0.00000000	
          1.02800000	          0.00000000	          0.00000000	          0.00000000	          0.00000000	          0.00000000	          0.00000000	         36.71958740	        497.06331403	         25.97162154	          0.00573656	         -0.02500000	         -0.12604720	          0.00000000	          0.00000000	          0.00000000	          0.00000000	         -3.48860406	          0.00000000	
          1.03200000	          0.00000000	          0.00000000	          0.00000000	          0.00000000	          0.00000000	          0.00000000	         38.36761982	        511.89817202	         25.71488329	          0.00639217	         -0.02500000	         -0.12539312	          0.00000000	          0.00000000	          0.00000000	          0.00000000	         -3.78926002	          0.00000000	
          1.03600000	          0.00000000	          0.00000000	          0.00000000	          0.00000000	          0.00000000	          0.00000000	         40.09229830	        527.48217659	         25.25173112	          0.00697854	         -0.02500000	         -0.12477691	          0.00000000	          0.00000000	          0.00000000	          0.00000000	         -4.10641721	          0.00000000	
          1.04000000	          0.00000000	          0.00000000	          0.00000000	          0.00000000	          0.00000000	          0.00000000	         42.01833715	        543.61282471	         24.67752598	          0.00749961	         -0.02500000	         -0.12421014	          0.00000000	          0.00000000	          0.00000000	          0.00000000	         -4.43293991	          0.00000000	
          1.04400000	          0.00000000	          0.00000000	          0.00000000	          0.00000000	          0.00000000	          0.00000000	         44.23993833	        560.11324148	         24.08448873	          0.00801362	         -0.02500000	         -0.12367394	          0.00000000	          0.00000000	          0.00000000	          0.00000000	         -4.76102221	          0.00000000	
          1.04800000	          0.00000000	          0.00000000	          0.00000000	          0.00000000	          0.00000000	          0.00000000	         46.82393191	        576.88435093	         23.53704202	          0.00856202	         -0.02500000	         -0.12314487	          0.00000000	          0.00000000	          0.00000000	          0.00000000	         -5.08335511	          0.00000000	
          1.05200000	          0.00000000	          0.00000000	          0.00000000	          0.00000000	          0.00000000	          0.00000000	         49.81365206	        593.89172988	         23.07112897	          0.00913529	         -0.02500000	         -0.12261680	          0.00000000	          0.00000000	          0.00000000	          0.00000000	         -5.39400504	          0.00000000	
          1.05600000	          0.00000000	          0.00000000	          0.00000000	          0.00000000	          0.00000000	          0.00000000	         53.22755855	        611.11060258	         22.70561776	          0.00969737	         -0.02500000	         -0.12210274	          0.00000000	          0.00000000	          0.00000000	          0.00000000	         -5.68881603	          0.00000000	
          1.06000000	          0.00000000	          0.00000000	          0.00000000	          0.00000000	          0.00000000	          0.00000000	         57.06327313	        628.48146210	         22.45427775	          0.01023183	         -0.02500000	         -0.12161592	          0.00000000	          0.00000000	          0.00000000	          0.00000000	         -5.96530165	          0.00000000	
          1.06400000	          0.00000000	          0.00000000	          0.00000000	          0.00000000	          0.00000000	          0.00000000	         61.30398594	        645.92362049	         22.34091596	          0.01075351	         -0.02500000	         -0.12115680	          0.00000000	          0.00000000	          0.00000000	          0.00000000	         -6.22218711	          0.00000000	
          1.06800000	          0.00000000	          0.00000000	          0.00000000	          0.00000000	          0.00000000	          0.00000000	         65.92246120	        663.37585979	         22.40674607	          0.01128046	         -0.02500000	         -0.12071681	          0.00000000	          0.00000000	          0.00000000	          0.00000000	         -6.45890766	          0.00000000	
          1.07200000	          0.00000000	          0.00000000	          0.00000000	          0.00000000	          0.00000000	          0.00000000	         70.88360966	        680.76731554	         22.68409707	          0.01181105	         -0.02500000	         -0.12028725	          0.00000000	          0.00000000	          0.00000000	          0.00000000	         -6.67532496	          0.00000000	
          1.07600000	          0.00000000	          0.00000000	          0.00000000	          0.00000000	          0.00000000	          0.00000000	         76.15098982	        697.94867704	         23.15518460	          0.01233401	         -0.02500000	         -0.11986668	          0.00000000	          0.00000000	          0.00000000	          0.00000000	         -6.87172027	          0.00000000	
          1.08000000	          0.00000000	          0.00000000	          0.00000000	          0.00000000	          0.00000000	          0.00000000	         81.70085604	        714.71663508	         23.75292725	          0.01285264	         -0.02500000	         -0.11945506	          0.00000000	          0.00000000	          0.00000000	          0.00000000	         -7.04894935	          0.00000000	
          1.08400000	          0.00000000	          0.00000000	          0.00000000	          0.00000000	          0.00000000	          0.00000000	         87.52309263	        730.92055770	         24.40078774	          0.01339753	         -0.02500000	         -0.11904569	          0.00000000	          0.00000000	          0.00000000	          0.00000000	         -7.20859186	          0.00000000	
